<svg width="800" height="360" viewBox="0 0 800 360" fill="none" xmlns="http://www.w3.org/2000/svg">
<rect y="360" width="360" height="800" rx="20" transform="rotate(-90 0 360)" fill="#F2F2F2"/>
<path d="M78.008 139.4H95.288V140.456H90.2V171.944H91.928C94.648 171.944 96.808 171.112 98.408 169.448C100.04 167.784 101.688 165.224 103.352 161.768H104.36L103.448 173H78.008V171.944H80.84V140.456H78.008V139.4ZM117.594 161.72H118.986V158.024C118.986 154.984 118.81 152.952 118.458 151.928C118.138 150.872 117.498 150.344 116.538 150.344C115.962 150.344 115.434 150.504 114.954 150.824C114.506 151.112 114.282 151.528 114.282 152.072C114.282 152.584 114.378 153.112 114.57 153.656H115.77C116.026 154.328 116.154 155.144 116.154 156.104C116.154 157.032 115.754 157.848 114.954 158.552C114.154 159.224 113.146 159.56 111.93 159.56C109.178 159.56 107.802 158.232 107.802 155.576C107.802 151.64 111.146 149.672 117.834 149.672C121.642 149.672 124.266 150.328 125.706 151.64C127.178 152.92 127.914 155.288 127.914 158.744V168.488C127.914 170.152 128.378 170.984 129.306 170.984C130.394 170.984 131.034 169.336 131.226 166.04L131.946 166.088C131.818 168.904 131.29 170.84 130.362 171.896C129.434 172.952 127.914 173.48 125.802 173.48C121.962 173.48 119.754 172.296 119.178 169.928C118.762 171.144 118.138 172.04 117.306 172.616C116.474 173.192 115.258 173.48 113.658 173.48C108.922 173.48 106.554 171.544 106.554 167.672C106.554 165.4 107.45 163.848 109.242 163.016C111.066 162.152 113.85 161.72 117.594 161.72ZM115.674 167.624C115.674 169.288 115.754 170.36 115.914 170.84C116.106 171.32 116.442 171.56 116.922 171.56C117.434 171.56 117.898 171.16 118.314 170.36C118.762 169.528 118.986 168.392 118.986 166.952V162.488H118.65C116.666 162.488 115.674 163.944 115.674 166.856V167.624ZM148.45 151.496C147.266 151.496 146.226 152.264 145.33 153.8C144.434 155.336 143.986 157.16 143.986 159.272V172.136H147.394V173H132.418V172.136H135.058V151.016H132.418V150.152H143.986V154.76C144.402 153.128 145.202 151.88 146.386 151.016C147.57 150.12 148.914 149.672 150.418 149.672C151.922 149.672 153.138 150.104 154.066 150.968C155.026 151.8 155.506 153 155.506 154.568C155.506 156.104 155.154 157.288 154.45 158.12C153.746 158.952 152.658 159.368 151.186 159.368C149.746 159.368 148.674 158.888 147.97 157.928C147.298 156.968 147.218 155.64 147.73 153.944H149.458C150.258 152.312 149.922 151.496 148.45 151.496ZM163.239 146.84C161.543 146.84 160.327 146.408 159.591 145.544C158.887 144.68 158.535 143.608 158.535 142.328C158.535 141.048 158.919 139.992 159.687 139.16C160.487 138.328 161.687 137.912 163.287 137.912C164.887 137.912 166.103 138.296 166.935 139.064C167.767 139.8 168.183 140.872 168.183 142.28C168.183 143.656 167.783 144.76 166.983 145.592C166.183 146.424 164.935 146.84 163.239 146.84ZM155.991 150.152H167.751V172.136H170.439V173H156.183V172.136H158.823V151.016H155.991V150.152ZM172.521 173.48V164.888H173.098C173.93 167.672 175.05 169.624 176.458 170.744C177.866 171.864 179.626 172.424 181.738 172.424C185.002 172.424 186.634 171.384 186.634 169.304C186.634 168.408 186.234 167.736 185.434 167.288C184.186 166.584 182.586 166.04 180.634 165.656C178.458 165.08 176.634 164.312 175.162 163.352C173.402 162.2 172.521 160.376 172.521 157.88C172.521 155.384 173.289 153.4 174.826 151.928C176.362 150.424 178.41 149.672 180.97 149.672C182.538 149.672 184.154 150.04 185.818 150.776C186.426 151.032 186.89 151.16 187.21 151.16C187.53 151.16 187.802 151.048 188.026 150.824C188.25 150.6 188.522 150.184 188.842 149.576H189.37V156.92H188.794C187.162 152.76 184.634 150.68 181.21 150.68C179.706 150.68 178.586 150.952 177.85 151.496C177.114 152.008 176.746 152.664 176.746 153.464C176.746 153.944 176.858 154.328 177.082 154.616C177.306 154.872 177.482 155.064 177.61 155.192C177.738 155.32 177.946 155.464 178.234 155.624C178.522 155.752 178.762 155.864 178.954 155.96C179.146 156.024 179.434 156.12 179.818 156.248C180.234 156.376 180.538 156.456 180.73 156.488C182.906 157.032 184.474 157.512 185.434 157.928C186.394 158.312 187.306 158.792 188.17 159.368C189.93 160.584 190.81 162.552 190.81 165.272C190.81 167.96 190.01 170.008 188.41 171.416C186.81 172.792 184.618 173.48 181.834 173.48C179.85 173.48 177.93 173.016 176.074 172.088C175.69 171.832 175.386 171.704 175.162 171.704C174.458 171.704 173.77 172.296 173.098 173.48H172.521ZM193.334 173.48V164.888H193.91C194.742 167.672 195.862 169.624 197.27 170.744C198.678 171.864 200.438 172.424 202.55 172.424C205.814 172.424 207.446 171.384 207.446 169.304C207.446 168.408 207.046 167.736 206.246 167.288C204.998 166.584 203.398 166.04 201.446 165.656C199.27 165.08 197.446 164.312 195.974 163.352C194.214 162.2 193.334 160.376 193.334 157.88C193.334 155.384 194.102 153.4 195.638 151.928C197.174 150.424 199.222 149.672 201.782 149.672C203.35 149.672 204.966 150.04 206.63 150.776C207.238 151.032 207.702 151.16 208.022 151.16C208.342 151.16 208.614 151.048 208.838 150.824C209.062 150.6 209.334 150.184 209.654 149.576H210.182V156.92H209.606C207.974 152.76 205.446 150.68 202.022 150.68C200.518 150.68 199.398 150.952 198.662 151.496C197.926 152.008 197.558 152.664 197.558 153.464C197.558 153.944 197.67 154.328 197.894 154.616C198.118 154.872 198.294 155.064 198.422 155.192C198.55 155.32 198.758 155.464 199.046 155.624C199.334 155.752 199.574 155.864 199.766 155.96C199.958 156.024 200.246 156.12 200.63 156.248C201.046 156.376 201.35 156.456 201.542 156.488C203.718 157.032 205.286 157.512 206.246 157.928C207.206 158.312 208.118 158.792 208.982 159.368C210.742 160.584 211.622 162.552 211.622 165.272C211.622 167.96 210.822 170.008 209.222 171.416C207.622 172.792 205.43 173.48 202.646 173.48C200.662 173.48 198.742 173.016 196.886 172.088C196.502 171.832 196.198 171.704 195.974 171.704C195.27 171.704 194.582 172.296 193.91 173.48H193.334ZM224.562 161.72H225.955V158.024C225.955 154.984 225.779 152.952 225.427 151.928C225.107 150.872 224.467 150.344 223.507 150.344C222.931 150.344 222.403 150.504 221.923 150.824C221.475 151.112 221.251 151.528 221.251 152.072C221.251 152.584 221.347 153.112 221.539 153.656H222.739C222.995 154.328 223.123 155.144 223.123 156.104C223.123 157.032 222.723 157.848 221.923 158.552C221.123 159.224 220.115 159.56 218.898 159.56C216.147 159.56 214.771 158.232 214.771 155.576C214.771 151.64 218.115 149.672 224.803 149.672C228.611 149.672 231.235 150.328 232.675 151.64C234.147 152.92 234.883 155.288 234.883 158.744V168.488C234.883 170.152 235.347 170.984 236.275 170.984C237.363 170.984 238.003 169.336 238.195 166.04L238.915 166.088C238.787 168.904 238.259 170.84 237.331 171.896C236.403 172.952 234.883 173.48 232.771 173.48C228.931 173.48 226.723 172.296 226.147 169.928C225.731 171.144 225.107 172.04 224.275 172.616C223.443 173.192 222.227 173.48 220.627 173.48C215.891 173.48 213.523 171.544 213.523 167.672C213.523 165.4 214.419 163.848 216.211 163.016C218.035 162.152 220.819 161.72 224.562 161.72ZM222.643 167.624C222.643 169.288 222.723 170.36 222.883 170.84C223.075 171.32 223.411 171.56 223.891 171.56C224.403 171.56 224.867 171.16 225.283 170.36C225.731 169.528 225.955 168.392 225.955 166.952V162.488H225.619C223.635 162.488 222.643 163.944 222.643 166.856V167.624ZM268.267 172.088L264.763 161.72H255.259L251.563 172.088H255.163V173H247.819V172.088H250.075L262.315 139.112H266.251L278.347 172.088H280.555V173H264.859V172.088H268.267ZM260.203 148.088L255.691 160.664H264.379L260.203 148.088ZM297.371 151.496C296.187 151.496 295.147 152.264 294.251 153.8C293.355 155.336 292.907 157.16 292.907 159.272V172.136H296.315V173H281.339V172.136H283.979V151.016H281.339V150.152H292.907V154.76C293.323 153.128 294.123 151.88 295.307 151.016C296.491 150.12 297.835 149.672 299.339 149.672C300.843 149.672 302.059 150.104 302.987 150.968C303.947 151.8 304.427 153 304.427 154.568C304.427 156.104 304.075 157.288 303.371 158.12C302.667 158.952 301.579 159.368 300.107 159.368C298.667 159.368 297.595 158.888 296.891 157.928C296.219 156.968 296.139 155.64 296.651 153.944H298.379C299.179 152.312 298.843 151.496 297.371 151.496ZM315.922 161.72H317.314V158.024C317.314 154.984 317.138 152.952 316.786 151.928C316.466 150.872 315.826 150.344 314.866 150.344C314.29 150.344 313.762 150.504 313.282 150.824C312.834 151.112 312.61 151.528 312.61 152.072C312.61 152.584 312.706 153.112 312.898 153.656H314.098C314.354 154.328 314.482 155.144 314.482 156.104C314.482 157.032 314.082 157.848 313.282 158.552C312.482 159.224 311.474 159.56 310.258 159.56C307.506 159.56 306.13 158.232 306.13 155.576C306.13 151.64 309.474 149.672 316.162 149.672C319.97 149.672 322.594 150.328 324.034 151.64C325.506 152.92 326.242 155.288 326.242 158.744V168.488C326.242 170.152 326.706 170.984 327.634 170.984C328.722 170.984 329.362 169.336 329.554 166.04L330.274 166.088C330.146 168.904 329.618 170.84 328.69 171.896C327.762 172.952 326.242 173.48 324.13 173.48C320.29 173.48 318.082 172.296 317.506 169.928C317.09 171.144 316.466 172.04 315.634 172.616C314.802 173.192 313.586 173.48 311.986 173.48C307.25 173.48 304.882 171.544 304.882 167.672C304.882 165.4 305.778 163.848 307.57 163.016C309.394 162.152 312.178 161.72 315.922 161.72ZM314.002 167.624C314.002 169.288 314.082 170.36 314.242 170.84C314.434 171.32 314.77 171.56 315.25 171.56C315.762 171.56 316.226 171.16 316.642 170.36C317.09 169.528 317.314 168.392 317.314 166.952V162.488H316.978C314.994 162.488 314.002 163.944 314.002 166.856V167.624ZM358.357 173H347.413L346.885 169.496C346.373 170.776 345.605 171.768 344.581 172.472C343.589 173.144 342.101 173.48 340.117 173.48C335.157 173.48 332.677 170.808 332.677 165.464V151.016H329.989V150.152H341.605V166.616C341.605 168.536 341.733 169.8 341.989 170.408C342.277 171.016 342.821 171.32 343.621 171.32C344.453 171.32 345.189 170.824 345.829 169.832C346.469 168.84 346.789 167.464 346.789 165.704V151.016H344.581V150.152H355.717V172.136H358.357V173ZM340.501 146.744L343.525 137.576L345.781 137.096C346.773 136.872 347.525 137 348.037 137.48C348.581 137.928 348.853 138.552 348.853 139.352C348.853 140.12 348.389 140.92 347.461 141.752L341.029 147.08L340.501 146.744ZM370.907 150.152V168.872C370.907 174.12 369.995 178.12 368.171 180.872C366.379 183.624 363.435 185 359.339 185C356.683 185 354.747 184.472 353.531 183.416C352.283 182.36 351.659 181.128 351.659 179.72C351.659 178.312 352.075 177.224 352.907 176.456C353.739 175.72 354.779 175.352 356.027 175.352C357.275 175.352 358.219 175.688 358.859 176.36C359.467 177.064 359.771 177.832 359.771 178.664C359.771 179.496 359.675 180.296 359.483 181.064H357.659C357.147 181.928 357.083 182.664 357.467 183.272C357.819 183.88 358.475 184.184 359.435 184.184C360.427 184.184 361.099 183.624 361.451 182.504C361.803 181.416 361.979 179.144 361.979 175.688V151.016H358.859V150.152H370.907ZM366.347 146.84C364.651 146.84 363.435 146.408 362.699 145.544C361.995 144.68 361.643 143.608 361.643 142.328C361.643 141.048 362.027 139.992 362.795 139.16C363.595 138.328 364.795 137.912 366.395 137.912C367.995 137.912 369.211 138.296 370.043 139.064C370.875 139.8 371.291 140.872 371.291 142.28C371.291 143.656 370.891 144.76 370.091 145.592C369.291 146.424 368.043 146.84 366.347 146.84ZM389.75 163.544V159.464C389.75 156.36 389.574 154.104 389.222 152.696C388.902 151.256 388.134 150.536 386.918 150.536C386.214 150.536 385.638 150.744 385.19 151.16C384.774 151.544 384.47 152.2 384.278 153.128C383.99 154.568 383.846 156.76 383.846 159.704V163.448C383.846 166.936 383.942 169.032 384.134 169.736C384.358 170.44 384.582 171.016 384.806 171.464C385.158 172.232 385.846 172.616 386.87 172.616C388.118 172.616 388.934 171.896 389.318 170.456C389.606 169.432 389.75 167.128 389.75 163.544ZM386.774 173.48C382.774 173.48 379.75 172.456 377.702 170.408C375.654 168.36 374.63 165.432 374.63 161.624C374.63 157.784 375.718 154.84 377.894 152.792C380.102 150.712 383.19 149.672 387.158 149.672C391.126 149.672 394.086 150.632 396.038 152.552C397.99 154.44 398.966 157.336 398.966 161.24C398.966 169.4 394.902 173.48 386.774 173.48ZM82.08 205.2C81.3333 205.2 80.6933 205.107 80.16 204.92C79.6267 204.733 79.1933 204.507 78.86 204.24C78.5267 203.973 78.2733 203.707 78.1 203.44C77.94 203.173 77.8533 202.96 77.84 202.8C77.8267 202.653 77.8733 202.54 77.98 202.46C78.0867 202.38 78.1933 202.34 78.3 202.34H79.18C79.26 202.34 79.32 202.353 79.36 202.38C79.4133 202.393 79.48 202.447 79.56 202.54C79.7333 202.727 79.9267 202.913 80.14 203.1C80.3533 203.287 80.6133 203.44 80.92 203.56C81.24 203.68 81.6333 203.74 82.1 203.74C82.78 203.74 83.34 203.613 83.78 203.36C84.22 203.093 84.44 202.707 84.44 202.2C84.44 201.867 84.3467 201.6 84.16 201.4C83.9867 201.2 83.6667 201.02 83.2 200.86C82.7467 200.7 82.12 200.533 81.32 200.36C80.52 200.173 79.8867 199.947 79.42 199.68C78.9533 199.4 78.62 199.073 78.42 198.7C78.22 198.313 78.12 197.88 78.12 197.4C78.12 196.907 78.2667 196.433 78.56 195.98C78.8533 195.513 79.28 195.133 79.84 194.84C80.4133 194.547 81.1267 194.4 81.98 194.4C82.6733 194.4 83.2667 194.487 83.76 194.66C84.2533 194.833 84.66 195.053 84.98 195.32C85.3 195.573 85.54 195.827 85.7 196.08C85.86 196.333 85.9467 196.547 85.96 196.72C85.9733 196.853 85.9333 196.967 85.84 197.06C85.7467 197.14 85.64 197.18 85.52 197.18H84.68C84.5867 197.18 84.5067 197.16 84.44 197.12C84.3867 197.08 84.3333 197.033 84.28 196.98C84.1467 196.807 83.9867 196.633 83.8 196.46C83.6267 196.287 83.3933 196.147 83.1 196.04C82.82 195.92 82.4467 195.86 81.98 195.86C81.3133 195.86 80.8133 196 80.48 196.28C80.1467 196.56 79.98 196.913 79.98 197.34C79.98 197.593 80.0533 197.82 80.2 198.02C80.3467 198.22 80.6267 198.4 81.04 198.56C81.4533 198.72 82.0667 198.893 82.88 199.08C83.76 199.253 84.4533 199.487 84.96 199.78C85.4667 200.073 85.8267 200.413 86.04 200.8C86.2533 201.187 86.36 201.633 86.36 202.14C86.36 202.7 86.1933 203.213 85.86 203.68C85.54 204.147 85.06 204.52 84.42 204.8C83.7933 205.067 83.0133 205.2 82.08 205.2ZM92.9353 205.2C91.922 205.2 91.0753 205.007 90.3953 204.62C89.7153 204.233 89.1953 203.7 88.8353 203.02C88.4753 202.327 88.2753 201.54 88.2353 200.66C88.222 200.433 88.2153 200.147 88.2153 199.8C88.2153 199.44 88.222 199.153 88.2353 198.94C88.2753 198.047 88.4753 197.26 88.8353 196.58C89.2086 195.9 89.7353 195.367 90.4153 194.98C91.0953 194.593 91.9353 194.4 92.9353 194.4C93.9353 194.4 94.7753 194.593 95.4553 194.98C96.1353 195.367 96.6553 195.9 97.0153 196.58C97.3886 197.26 97.5953 198.047 97.6353 198.94C97.6486 199.153 97.6553 199.44 97.6553 199.8C97.6553 200.147 97.6486 200.433 97.6353 200.66C97.5953 201.54 97.3953 202.327 97.0353 203.02C96.6753 203.7 96.1553 204.233 95.4753 204.62C94.7953 205.007 93.9486 205.2 92.9353 205.2ZM92.9353 203.66C93.762 203.66 94.422 203.4 94.9153 202.88C95.4086 202.347 95.6753 201.573 95.7153 200.56C95.7286 200.36 95.7353 200.107 95.7353 199.8C95.7353 199.493 95.7286 199.24 95.7153 199.04C95.6753 198.027 95.4086 197.26 94.9153 196.74C94.422 196.207 93.762 195.94 92.9353 195.94C92.1086 195.94 91.442 196.207 90.9353 196.74C90.442 197.26 90.182 198.027 90.1553 199.04C90.142 199.24 90.1353 199.493 90.1353 199.8C90.1353 200.107 90.142 200.36 90.1553 200.56C90.182 201.573 90.442 202.347 90.9353 202.88C91.442 203.4 92.1086 203.66 92.9353 203.66ZM101.543 205C101.409 205 101.296 204.96 101.202 204.88C101.123 204.787 101.083 204.673 101.083 204.54V196.2H99.3825C99.2492 196.2 99.1358 196.16 99.0425 196.08C98.9625 195.987 98.9225 195.873 98.9225 195.74V195.06C98.9225 194.927 98.9625 194.82 99.0425 194.74C99.1358 194.647 99.2492 194.6 99.3825 194.6H101.083V193.6C101.083 192.92 101.196 192.327 101.423 191.82C101.649 191.3 102.009 190.9 102.503 190.62C103.009 190.34 103.683 190.2 104.523 190.2H105.723C105.856 190.2 105.963 190.247 106.043 190.34C106.123 190.42 106.163 190.527 106.163 190.66V191.34C106.163 191.473 106.123 191.587 106.043 191.68C105.963 191.76 105.856 191.8 105.723 191.8H104.563C103.936 191.8 103.509 191.967 103.283 192.3C103.056 192.62 102.943 193.087 102.943 193.7V194.6H105.523C105.656 194.6 105.763 194.647 105.843 194.74C105.923 194.82 105.963 194.927 105.963 195.06V195.74C105.963 195.873 105.923 195.987 105.843 196.08C105.763 196.16 105.656 196.2 105.523 196.2H102.943V204.54C102.943 204.673 102.896 204.787 102.803 204.88C102.723 204.96 102.616 205 102.483 205H101.543ZM111.798 205C111.051 205 110.444 204.86 109.978 204.58C109.511 204.287 109.171 203.88 108.958 203.36C108.744 202.827 108.638 202.2 108.638 201.48V196.2H107.078C106.944 196.2 106.831 196.16 106.738 196.08C106.658 195.987 106.618 195.873 106.618 195.74V195.06C106.618 194.927 106.658 194.82 106.738 194.74C106.831 194.647 106.944 194.6 107.078 194.6H108.638V191.26C108.638 191.127 108.678 191.02 108.758 190.94C108.851 190.847 108.964 190.8 109.098 190.8H110.038C110.171 190.8 110.278 190.847 110.358 190.94C110.451 191.02 110.498 191.127 110.498 191.26V194.6H112.978C113.111 194.6 113.218 194.647 113.298 194.74C113.391 194.82 113.438 194.927 113.438 195.06V195.74C113.438 195.873 113.391 195.987 113.298 196.08C113.218 196.16 113.111 196.2 112.978 196.2H110.498V201.34C110.498 201.967 110.604 202.46 110.818 202.82C111.031 203.18 111.411 203.36 111.958 203.36H113.178C113.311 203.36 113.418 203.407 113.498 203.5C113.591 203.58 113.638 203.687 113.638 203.82V204.54C113.638 204.673 113.591 204.787 113.498 204.88C113.418 204.96 113.311 205 113.178 205H111.798ZM118.31 205C118.137 205 118.004 204.96 117.91 204.88C117.817 204.787 117.737 204.66 117.67 204.5L114.83 195.22C114.804 195.153 114.79 195.087 114.79 195.02C114.79 194.9 114.83 194.8 114.91 194.72C115.004 194.64 115.104 194.6 115.21 194.6H116.09C116.237 194.6 116.35 194.64 116.43 194.72C116.51 194.8 116.564 194.873 116.59 194.94L118.81 202.48L121.19 195.02C121.217 194.927 121.27 194.833 121.35 194.74C121.444 194.647 121.577 194.6 121.75 194.6H122.43C122.604 194.6 122.737 194.647 122.83 194.74C122.924 194.833 122.977 194.927 122.99 195.02L125.37 202.48L127.59 194.94C127.604 194.873 127.65 194.8 127.73 194.72C127.81 194.64 127.924 194.6 128.07 194.6H128.95C129.07 194.6 129.17 194.64 129.25 194.72C129.33 194.8 129.37 194.9 129.37 195.02C129.37 195.087 129.357 195.153 129.33 195.22L126.49 204.5C126.45 204.66 126.377 204.787 126.27 204.88C126.177 204.96 126.037 205 125.85 205H125.07C124.897 205 124.75 204.96 124.63 204.88C124.524 204.787 124.45 204.66 124.41 204.5L122.09 197.34L119.77 204.5C119.717 204.66 119.637 204.787 119.53 204.88C119.424 204.96 119.277 205 119.09 205H118.31ZM134.193 205.2C133.526 205.2 132.919 205.067 132.373 204.8C131.826 204.533 131.386 204.173 131.053 203.72C130.719 203.267 130.553 202.753 130.553 202.18C130.553 201.26 130.926 200.527 131.673 199.98C132.419 199.433 133.393 199.073 134.593 198.9L137.573 198.48V197.9C137.573 197.26 137.386 196.76 137.013 196.4C136.653 196.04 136.059 195.86 135.233 195.86C134.633 195.86 134.146 195.98 133.773 196.22C133.413 196.46 133.159 196.767 133.013 197.14C132.933 197.34 132.793 197.44 132.593 197.44H131.693C131.546 197.44 131.433 197.4 131.353 197.32C131.286 197.227 131.253 197.12 131.253 197C131.253 196.8 131.326 196.553 131.473 196.26C131.633 195.967 131.873 195.68 132.193 195.4C132.513 195.12 132.919 194.887 133.413 194.7C133.919 194.5 134.533 194.4 135.253 194.4C136.053 194.4 136.726 194.507 137.273 194.72C137.819 194.92 138.246 195.193 138.553 195.54C138.873 195.887 139.099 196.28 139.233 196.72C139.379 197.16 139.453 197.607 139.453 198.06V204.54C139.453 204.673 139.406 204.787 139.313 204.88C139.233 204.96 139.126 205 138.993 205H138.073C137.926 205 137.813 204.96 137.733 204.88C137.653 204.787 137.613 204.673 137.613 204.54V203.68C137.439 203.92 137.206 204.16 136.913 204.4C136.619 204.627 136.253 204.82 135.813 204.98C135.373 205.127 134.833 205.2 134.193 205.2ZM134.613 203.7C135.159 203.7 135.659 203.587 136.113 203.36C136.566 203.12 136.919 202.753 137.173 202.26C137.439 201.767 137.573 201.147 137.573 200.4V199.84L135.253 200.18C134.306 200.313 133.593 200.54 133.113 200.86C132.633 201.167 132.393 201.56 132.393 202.04C132.393 202.413 132.499 202.727 132.713 202.98C132.939 203.22 133.219 203.4 133.553 203.52C133.899 203.64 134.253 203.7 134.613 203.7ZM142.788 205C142.654 205 142.541 204.96 142.448 204.88C142.368 204.787 142.328 204.673 142.328 204.54V195.08C142.328 194.947 142.368 194.833 142.448 194.74C142.541 194.647 142.654 194.6 142.788 194.6H143.708C143.841 194.6 143.954 194.647 144.048 194.74C144.141 194.833 144.188 194.947 144.188 195.08V195.96C144.454 195.507 144.821 195.167 145.288 194.94C145.754 194.713 146.314 194.6 146.968 194.6H147.768C147.901 194.6 148.008 194.647 148.088 194.74C148.168 194.82 148.208 194.927 148.208 195.06V195.88C148.208 196.013 148.168 196.12 148.088 196.2C148.008 196.28 147.901 196.32 147.768 196.32H146.568C145.848 196.32 145.281 196.533 144.868 196.96C144.454 197.373 144.248 197.94 144.248 198.66V204.54C144.248 204.673 144.201 204.787 144.108 204.88C144.014 204.96 143.901 205 143.768 205H142.788ZM153.87 205.2C152.497 205.2 151.403 204.78 150.59 203.94C149.777 203.087 149.33 201.927 149.25 200.46C149.237 200.287 149.23 200.067 149.23 199.8C149.23 199.52 149.237 199.293 149.25 199.12C149.303 198.173 149.523 197.347 149.91 196.64C150.297 195.92 150.823 195.367 151.49 194.98C152.17 194.593 152.963 194.4 153.87 194.4C154.883 194.4 155.73 194.613 156.41 195.04C157.103 195.467 157.63 196.073 157.99 196.86C158.35 197.647 158.53 198.567 158.53 199.62V199.96C158.53 200.107 158.483 200.22 158.39 200.3C158.31 200.38 158.203 200.42 158.07 200.42H151.15C151.15 200.433 151.15 200.46 151.15 200.5C151.15 200.54 151.15 200.573 151.15 200.6C151.177 201.147 151.297 201.66 151.51 202.14C151.723 202.607 152.03 202.987 152.43 203.28C152.83 203.573 153.31 203.72 153.87 203.72C154.35 203.72 154.75 203.647 155.07 203.5C155.39 203.353 155.65 203.193 155.85 203.02C156.05 202.833 156.183 202.693 156.25 202.6C156.37 202.427 156.463 202.327 156.53 202.3C156.597 202.26 156.703 202.24 156.85 202.24H157.81C157.943 202.24 158.05 202.28 158.13 202.36C158.223 202.427 158.263 202.527 158.25 202.66C158.237 202.86 158.13 203.107 157.93 203.4C157.73 203.68 157.443 203.96 157.07 204.24C156.697 204.52 156.243 204.753 155.71 204.94C155.177 205.113 154.563 205.2 153.87 205.2ZM151.15 199.04H156.63V198.98C156.63 198.38 156.517 197.847 156.29 197.38C156.077 196.913 155.763 196.547 155.35 196.28C154.937 196 154.443 195.86 153.87 195.86C153.297 195.86 152.803 196 152.39 196.28C151.99 196.547 151.683 196.913 151.47 197.38C151.257 197.847 151.15 198.38 151.15 198.98V199.04ZM169.624 205.2C168.89 205.2 168.257 205.073 167.724 204.82C167.19 204.553 166.75 204.2 166.404 203.76C166.07 203.307 165.817 202.793 165.644 202.22C165.484 201.647 165.39 201.04 165.364 200.4C165.35 200.187 165.344 199.987 165.344 199.8C165.344 199.613 165.35 199.413 165.364 199.2C165.39 198.573 165.484 197.973 165.644 197.4C165.817 196.827 166.07 196.313 166.404 195.86C166.75 195.407 167.19 195.053 167.724 194.8C168.257 194.533 168.89 194.4 169.624 194.4C170.41 194.4 171.064 194.54 171.584 194.82C172.104 195.1 172.53 195.447 172.864 195.86V191.26C172.864 191.127 172.904 191.02 172.984 190.94C173.077 190.847 173.19 190.8 173.324 190.8H174.284C174.417 190.8 174.524 190.847 174.604 190.94C174.697 191.02 174.744 191.127 174.744 191.26V204.54C174.744 204.673 174.697 204.787 174.604 204.88C174.524 204.96 174.417 205 174.284 205H173.384C173.237 205 173.124 204.96 173.044 204.88C172.964 204.787 172.924 204.673 172.924 204.54V203.7C172.59 204.127 172.157 204.487 171.624 204.78C171.09 205.06 170.424 205.2 169.624 205.2ZM170.044 203.58C170.71 203.58 171.244 203.427 171.644 203.12C172.044 202.813 172.344 202.427 172.544 201.96C172.744 201.48 172.85 200.993 172.864 200.5C172.877 200.287 172.884 200.033 172.884 199.74C172.884 199.433 172.877 199.173 172.864 198.96C172.85 198.493 172.737 198.033 172.524 197.58C172.324 197.127 172.017 196.753 171.604 196.46C171.204 196.167 170.684 196.02 170.044 196.02C169.364 196.02 168.824 196.173 168.424 196.48C168.024 196.773 167.737 197.167 167.564 197.66C167.39 198.14 167.29 198.66 167.264 199.22C167.25 199.607 167.25 199.993 167.264 200.38C167.29 200.94 167.39 201.467 167.564 201.96C167.737 202.44 168.024 202.833 168.424 203.14C168.824 203.433 169.364 203.58 170.044 203.58ZM181.858 205.2C180.485 205.2 179.392 204.78 178.578 203.94C177.765 203.087 177.318 201.927 177.238 200.46C177.225 200.287 177.218 200.067 177.218 199.8C177.218 199.52 177.225 199.293 177.238 199.12C177.292 198.173 177.512 197.347 177.898 196.64C178.285 195.92 178.812 195.367 179.478 194.98C180.158 194.593 180.952 194.4 181.858 194.4C182.872 194.4 183.718 194.613 184.398 195.04C185.092 195.467 185.618 196.073 185.978 196.86C186.338 197.647 186.518 198.567 186.518 199.62V199.96C186.518 200.107 186.472 200.22 186.378 200.3C186.298 200.38 186.192 200.42 186.058 200.42H179.138C179.138 200.433 179.138 200.46 179.138 200.5C179.138 200.54 179.138 200.573 179.138 200.6C179.165 201.147 179.285 201.66 179.498 202.14C179.712 202.607 180.018 202.987 180.418 203.28C180.818 203.573 181.298 203.72 181.858 203.72C182.338 203.72 182.738 203.647 183.058 203.5C183.378 203.353 183.638 203.193 183.838 203.02C184.038 202.833 184.172 202.693 184.238 202.6C184.358 202.427 184.452 202.327 184.518 202.3C184.585 202.26 184.692 202.24 184.838 202.24H185.798C185.932 202.24 186.038 202.28 186.118 202.36C186.212 202.427 186.252 202.527 186.238 202.66C186.225 202.86 186.118 203.107 185.918 203.4C185.718 203.68 185.432 203.96 185.058 204.24C184.685 204.52 184.232 204.753 183.698 204.94C183.165 205.113 182.552 205.2 181.858 205.2ZM179.138 199.04H184.618V198.98C184.618 198.38 184.505 197.847 184.278 197.38C184.065 196.913 183.752 196.547 183.338 196.28C182.925 196 182.432 195.86 181.858 195.86C181.285 195.86 180.792 196 180.378 196.28C179.978 196.547 179.672 196.913 179.458 197.38C179.245 197.847 179.138 198.38 179.138 198.98V199.04ZM192.178 205C191.978 205 191.818 204.953 191.698 204.86C191.591 204.767 191.505 204.647 191.438 204.5L187.738 195.22C187.711 195.153 187.698 195.087 187.698 195.02C187.698 194.9 187.738 194.8 187.818 194.72C187.898 194.64 187.998 194.6 188.118 194.6H189.078C189.225 194.6 189.338 194.64 189.418 194.72C189.498 194.8 189.545 194.873 189.558 194.94L192.618 202.82L195.658 194.94C195.685 194.873 195.731 194.8 195.798 194.72C195.878 194.64 195.991 194.6 196.138 194.6H197.118C197.225 194.6 197.318 194.64 197.398 194.72C197.491 194.8 197.538 194.9 197.538 195.02C197.538 195.087 197.525 195.153 197.498 195.22L193.778 204.5C193.725 204.647 193.638 204.767 193.518 204.86C193.411 204.953 193.251 205 193.038 205H192.178ZM203.401 205.2C202.028 205.2 200.935 204.78 200.121 203.94C199.308 203.087 198.861 201.927 198.781 200.46C198.768 200.287 198.761 200.067 198.761 199.8C198.761 199.52 198.768 199.293 198.781 199.12C198.835 198.173 199.055 197.347 199.441 196.64C199.828 195.92 200.355 195.367 201.021 194.98C201.701 194.593 202.495 194.4 203.401 194.4C204.415 194.4 205.261 194.613 205.941 195.04C206.635 195.467 207.161 196.073 207.521 196.86C207.881 197.647 208.061 198.567 208.061 199.62V199.96C208.061 200.107 208.015 200.22 207.921 200.3C207.841 200.38 207.735 200.42 207.601 200.42H200.681C200.681 200.433 200.681 200.46 200.681 200.5C200.681 200.54 200.681 200.573 200.681 200.6C200.708 201.147 200.828 201.66 201.041 202.14C201.255 202.607 201.561 202.987 201.961 203.28C202.361 203.573 202.841 203.72 203.401 203.72C203.881 203.72 204.281 203.647 204.601 203.5C204.921 203.353 205.181 203.193 205.381 203.02C205.581 202.833 205.715 202.693 205.781 202.6C205.901 202.427 205.995 202.327 206.061 202.3C206.128 202.26 206.235 202.24 206.381 202.24H207.341C207.475 202.24 207.581 202.28 207.661 202.36C207.755 202.427 207.795 202.527 207.781 202.66C207.768 202.86 207.661 203.107 207.461 203.4C207.261 203.68 206.975 203.96 206.601 204.24C206.228 204.52 205.775 204.753 205.241 204.94C204.708 205.113 204.095 205.2 203.401 205.2ZM200.681 199.04H206.161V198.98C206.161 198.38 206.048 197.847 205.821 197.38C205.608 196.913 205.295 196.547 204.881 196.28C204.468 196 203.975 195.86 203.401 195.86C202.828 195.86 202.335 196 201.921 196.28C201.521 196.547 201.215 196.913 201.001 197.38C200.788 197.847 200.681 198.38 200.681 198.98V199.04ZM210.933 205C210.799 205 210.686 204.96 210.593 204.88C210.513 204.787 210.473 204.673 210.473 204.54V191.26C210.473 191.127 210.513 191.02 210.593 190.94C210.686 190.847 210.799 190.8 210.933 190.8H211.873C212.019 190.8 212.133 190.847 212.213 190.94C212.293 191.02 212.333 191.127 212.333 191.26V204.54C212.333 204.673 212.293 204.787 212.213 204.88C212.133 204.96 212.019 205 211.873 205H210.933ZM219.576 205.2C218.563 205.2 217.716 205.007 217.036 204.62C216.356 204.233 215.836 203.7 215.476 203.02C215.116 202.327 214.916 201.54 214.876 200.66C214.863 200.433 214.856 200.147 214.856 199.8C214.856 199.44 214.863 199.153 214.876 198.94C214.916 198.047 215.116 197.26 215.476 196.58C215.849 195.9 216.376 195.367 217.056 194.98C217.736 194.593 218.576 194.4 219.576 194.4C220.576 194.4 221.416 194.593 222.096 194.98C222.776 195.367 223.296 195.9 223.656 196.58C224.029 197.26 224.236 198.047 224.276 198.94C224.289 199.153 224.296 199.44 224.296 199.8C224.296 200.147 224.289 200.433 224.276 200.66C224.236 201.54 224.036 202.327 223.676 203.02C223.316 203.7 222.796 204.233 222.116 204.62C221.436 205.007 220.589 205.2 219.576 205.2ZM219.576 203.66C220.403 203.66 221.063 203.4 221.556 202.88C222.049 202.347 222.316 201.573 222.356 200.56C222.369 200.36 222.376 200.107 222.376 199.8C222.376 199.493 222.369 199.24 222.356 199.04C222.316 198.027 222.049 197.26 221.556 196.74C221.063 196.207 220.403 195.94 219.576 195.94C218.749 195.94 218.083 196.207 217.576 196.74C217.083 197.26 216.823 198.027 216.796 199.04C216.783 199.24 216.776 199.493 216.776 199.8C216.776 200.107 216.783 200.36 216.796 200.56C216.823 201.573 217.083 202.347 217.576 202.88C218.083 203.4 218.749 203.66 219.576 203.66ZM227.28 208.8C227.147 208.8 227.034 208.753 226.94 208.66C226.86 208.58 226.82 208.473 226.82 208.34V195.06C226.82 194.927 226.86 194.82 226.94 194.74C227.034 194.647 227.147 194.6 227.28 194.6H228.2C228.334 194.6 228.44 194.647 228.52 194.74C228.614 194.82 228.66 194.927 228.66 195.06V195.94C228.98 195.5 229.407 195.133 229.94 194.84C230.474 194.547 231.14 194.4 231.94 194.4C232.687 194.4 233.32 194.527 233.84 194.78C234.374 195.033 234.807 195.38 235.14 195.82C235.487 196.26 235.747 196.76 235.92 197.32C236.094 197.88 236.187 198.48 236.2 199.12C236.214 199.333 236.22 199.56 236.22 199.8C236.22 200.04 236.214 200.267 236.2 200.48C236.187 201.107 236.094 201.707 235.92 202.28C235.747 202.84 235.487 203.34 235.14 203.78C234.807 204.207 234.374 204.553 233.84 204.82C233.32 205.073 232.687 205.2 231.94 205.2C231.167 205.2 230.514 205.06 229.98 204.78C229.46 204.487 229.034 204.127 228.7 203.7V208.34C228.7 208.473 228.66 208.58 228.58 208.66C228.5 208.753 228.387 208.8 228.24 208.8H227.28ZM231.52 203.58C232.214 203.58 232.754 203.433 233.14 203.14C233.54 202.833 233.827 202.44 234 201.96C234.174 201.467 234.274 200.94 234.3 200.38C234.314 199.993 234.314 199.607 234.3 199.22C234.274 198.66 234.174 198.14 234 197.66C233.827 197.167 233.54 196.773 233.14 196.48C232.754 196.173 232.214 196.02 231.52 196.02C230.867 196.02 230.334 196.173 229.92 196.48C229.52 196.787 229.22 197.18 229.02 197.66C228.834 198.127 228.727 198.607 228.7 199.1C228.687 199.313 228.68 199.567 228.68 199.86C228.68 200.153 228.687 200.413 228.7 200.64C228.714 201.107 228.82 201.567 229.02 202.02C229.234 202.473 229.547 202.847 229.96 203.14C230.374 203.433 230.894 203.58 231.52 203.58ZM242.854 205.2C241.481 205.2 240.388 204.78 239.574 203.94C238.761 203.087 238.314 201.927 238.234 200.46C238.221 200.287 238.214 200.067 238.214 199.8C238.214 199.52 238.221 199.293 238.234 199.12C238.288 198.173 238.508 197.347 238.894 196.64C239.281 195.92 239.808 195.367 240.474 194.98C241.154 194.593 241.948 194.4 242.854 194.4C243.868 194.4 244.714 194.613 245.394 195.04C246.088 195.467 246.614 196.073 246.974 196.86C247.334 197.647 247.514 198.567 247.514 199.62V199.96C247.514 200.107 247.468 200.22 247.374 200.3C247.294 200.38 247.188 200.42 247.054 200.42H240.134C240.134 200.433 240.134 200.46 240.134 200.5C240.134 200.54 240.134 200.573 240.134 200.6C240.161 201.147 240.281 201.66 240.494 202.14C240.708 202.607 241.014 202.987 241.414 203.28C241.814 203.573 242.294 203.72 242.854 203.72C243.334 203.72 243.734 203.647 244.054 203.5C244.374 203.353 244.634 203.193 244.834 203.02C245.034 202.833 245.168 202.693 245.234 202.6C245.354 202.427 245.448 202.327 245.514 202.3C245.581 202.26 245.688 202.24 245.834 202.24H246.794C246.928 202.24 247.034 202.28 247.114 202.36C247.208 202.427 247.248 202.527 247.234 202.66C247.221 202.86 247.114 203.107 246.914 203.4C246.714 203.68 246.428 203.96 246.054 204.24C245.681 204.52 245.228 204.753 244.694 204.94C244.161 205.113 243.548 205.2 242.854 205.2ZM240.134 199.04H245.614V198.98C245.614 198.38 245.501 197.847 245.274 197.38C245.061 196.913 244.748 196.547 244.334 196.28C243.921 196 243.428 195.86 242.854 195.86C242.281 195.86 241.788 196 241.374 196.28C240.974 196.547 240.668 196.913 240.454 197.38C240.241 197.847 240.134 198.38 240.134 198.98V199.04ZM250.366 205C250.232 205 250.119 204.96 250.026 204.88C249.946 204.787 249.906 204.673 249.906 204.54V195.08C249.906 194.947 249.946 194.833 250.026 194.74C250.119 194.647 250.232 194.6 250.366 194.6H251.286C251.419 194.6 251.532 194.647 251.626 194.74C251.719 194.833 251.766 194.947 251.766 195.08V195.96C252.032 195.507 252.399 195.167 252.866 194.94C253.332 194.713 253.892 194.6 254.546 194.6H255.346C255.479 194.6 255.586 194.647 255.666 194.74C255.746 194.82 255.786 194.927 255.786 195.06V195.88C255.786 196.013 255.746 196.12 255.666 196.2C255.586 196.28 255.479 196.32 255.346 196.32H254.146C253.426 196.32 252.859 196.533 252.446 196.96C252.032 197.373 251.826 197.94 251.826 198.66V204.54C251.826 204.673 251.779 204.787 251.686 204.88C251.592 204.96 251.479 205 251.346 205H250.366ZM265.537 205.2C264.79 205.2 264.15 205.107 263.617 204.92C263.084 204.733 262.65 204.507 262.317 204.24C261.984 203.973 261.73 203.707 261.557 203.44C261.397 203.173 261.31 202.96 261.297 202.8C261.284 202.653 261.33 202.54 261.437 202.46C261.544 202.38 261.65 202.34 261.757 202.34H262.637C262.717 202.34 262.777 202.353 262.817 202.38C262.87 202.393 262.937 202.447 263.017 202.54C263.19 202.727 263.384 202.913 263.597 203.1C263.81 203.287 264.07 203.44 264.377 203.56C264.697 203.68 265.09 203.74 265.557 203.74C266.237 203.74 266.797 203.613 267.237 203.36C267.677 203.093 267.897 202.707 267.897 202.2C267.897 201.867 267.804 201.6 267.617 201.4C267.444 201.2 267.124 201.02 266.657 200.86C266.204 200.7 265.577 200.533 264.777 200.36C263.977 200.173 263.344 199.947 262.877 199.68C262.41 199.4 262.077 199.073 261.877 198.7C261.677 198.313 261.577 197.88 261.577 197.4C261.577 196.907 261.724 196.433 262.017 195.98C262.31 195.513 262.737 195.133 263.297 194.84C263.87 194.547 264.584 194.4 265.437 194.4C266.13 194.4 266.724 194.487 267.217 194.66C267.71 194.833 268.117 195.053 268.437 195.32C268.757 195.573 268.997 195.827 269.157 196.08C269.317 196.333 269.404 196.547 269.417 196.72C269.43 196.853 269.39 196.967 269.297 197.06C269.204 197.14 269.097 197.18 268.977 197.18H268.137C268.044 197.18 267.964 197.16 267.897 197.12C267.844 197.08 267.79 197.033 267.737 196.98C267.604 196.807 267.444 196.633 267.257 196.46C267.084 196.287 266.85 196.147 266.557 196.04C266.277 195.92 265.904 195.86 265.437 195.86C264.77 195.86 264.27 196 263.937 196.28C263.604 196.56 263.437 196.913 263.437 197.34C263.437 197.593 263.51 197.82 263.657 198.02C263.804 198.22 264.084 198.4 264.497 198.56C264.91 198.72 265.524 198.893 266.337 199.08C267.217 199.253 267.91 199.487 268.417 199.78C268.924 200.073 269.284 200.413 269.497 200.8C269.71 201.187 269.817 201.633 269.817 202.14C269.817 202.7 269.65 203.213 269.317 203.68C268.997 204.147 268.517 204.52 267.877 204.8C267.25 205.067 266.47 205.2 265.537 205.2ZM276.173 205C275.426 205 274.819 204.86 274.353 204.58C273.886 204.287 273.546 203.88 273.333 203.36C273.119 202.827 273.013 202.2 273.013 201.48V196.2H271.453C271.319 196.2 271.206 196.16 271.113 196.08C271.033 195.987 270.993 195.873 270.993 195.74V195.06C270.993 194.927 271.033 194.82 271.113 194.74C271.206 194.647 271.319 194.6 271.453 194.6H273.013V191.26C273.013 191.127 273.053 191.02 273.133 190.94C273.226 190.847 273.339 190.8 273.473 190.8H274.413C274.546 190.8 274.653 190.847 274.733 190.94C274.826 191.02 274.873 191.127 274.873 191.26V194.6H277.353C277.486 194.6 277.593 194.647 277.673 194.74C277.766 194.82 277.813 194.927 277.813 195.06V195.74C277.813 195.873 277.766 195.987 277.673 196.08C277.593 196.16 277.486 196.2 277.353 196.2H274.873V201.34C274.873 201.967 274.979 202.46 275.193 202.82C275.406 203.18 275.786 203.36 276.333 203.36H277.553C277.686 203.36 277.793 203.407 277.873 203.5C277.966 203.58 278.013 203.687 278.013 203.82V204.54C278.013 204.673 277.966 204.787 277.873 204.88C277.793 204.96 277.686 205 277.553 205H276.173ZM283.805 205.2C282.952 205.2 282.225 205.013 281.625 204.64C281.039 204.253 280.592 203.72 280.285 203.04C279.979 202.36 279.825 201.58 279.825 200.7V195.06C279.825 194.927 279.865 194.82 279.945 194.74C280.039 194.647 280.152 194.6 280.285 194.6H281.285C281.419 194.6 281.525 194.647 281.605 194.74C281.699 194.82 281.745 194.927 281.745 195.06V200.6C281.745 202.587 282.612 203.58 284.345 203.58C285.172 203.58 285.832 203.32 286.325 202.8C286.832 202.267 287.085 201.533 287.085 200.6V195.06C287.085 194.927 287.125 194.82 287.205 194.74C287.299 194.647 287.412 194.6 287.545 194.6H288.525C288.672 194.6 288.785 194.647 288.865 194.74C288.945 194.82 288.985 194.927 288.985 195.06V204.54C288.985 204.673 288.945 204.787 288.865 204.88C288.785 204.96 288.672 205 288.525 205H287.605C287.472 205 287.359 204.96 287.265 204.88C287.185 204.787 287.145 204.673 287.145 204.54V203.66C286.785 204.127 286.345 204.5 285.825 204.78C285.319 205.06 284.645 205.2 283.805 205.2ZM295.757 205.2C295.023 205.2 294.39 205.073 293.857 204.82C293.323 204.553 292.883 204.2 292.537 203.76C292.203 203.307 291.95 202.793 291.777 202.22C291.617 201.647 291.523 201.04 291.497 200.4C291.483 200.187 291.477 199.987 291.477 199.8C291.477 199.613 291.483 199.413 291.497 199.2C291.523 198.573 291.617 197.973 291.777 197.4C291.95 196.827 292.203 196.313 292.537 195.86C292.883 195.407 293.323 195.053 293.857 194.8C294.39 194.533 295.023 194.4 295.757 194.4C296.543 194.4 297.197 194.54 297.717 194.82C298.237 195.1 298.663 195.447 298.997 195.86V191.26C298.997 191.127 299.037 191.02 299.117 190.94C299.21 190.847 299.323 190.8 299.457 190.8H300.417C300.55 190.8 300.657 190.847 300.737 190.94C300.83 191.02 300.877 191.127 300.877 191.26V204.54C300.877 204.673 300.83 204.787 300.737 204.88C300.657 204.96 300.55 205 300.417 205H299.517C299.37 205 299.257 204.96 299.177 204.88C299.097 204.787 299.057 204.673 299.057 204.54V203.7C298.723 204.127 298.29 204.487 297.757 204.78C297.223 205.06 296.557 205.2 295.757 205.2ZM296.177 203.58C296.843 203.58 297.377 203.427 297.777 203.12C298.177 202.813 298.477 202.427 298.677 201.96C298.877 201.48 298.983 200.993 298.997 200.5C299.01 200.287 299.017 200.033 299.017 199.74C299.017 199.433 299.01 199.173 298.997 198.96C298.983 198.493 298.87 198.033 298.657 197.58C298.457 197.127 298.15 196.753 297.737 196.46C297.337 196.167 296.817 196.02 296.177 196.02C295.497 196.02 294.957 196.173 294.557 196.48C294.157 196.773 293.87 197.167 293.697 197.66C293.523 198.14 293.423 198.66 293.397 199.22C293.383 199.607 293.383 199.993 293.397 200.38C293.423 200.94 293.523 201.467 293.697 201.96C293.87 202.44 294.157 202.833 294.557 203.14C294.957 203.433 295.497 203.58 296.177 203.58ZM307.991 205.2C306.618 205.2 305.524 204.78 304.711 203.94C303.898 203.087 303.451 201.927 303.371 200.46C303.358 200.287 303.351 200.067 303.351 199.8C303.351 199.52 303.358 199.293 303.371 199.12C303.424 198.173 303.644 197.347 304.031 196.64C304.418 195.92 304.944 195.367 305.611 194.98C306.291 194.593 307.084 194.4 307.991 194.4C309.004 194.4 309.851 194.613 310.531 195.04C311.224 195.467 311.751 196.073 312.111 196.86C312.471 197.647 312.651 198.567 312.651 199.62V199.96C312.651 200.107 312.604 200.22 312.511 200.3C312.431 200.38 312.324 200.42 312.191 200.42H305.271C305.271 200.433 305.271 200.46 305.271 200.5C305.271 200.54 305.271 200.573 305.271 200.6C305.298 201.147 305.418 201.66 305.631 202.14C305.844 202.607 306.151 202.987 306.551 203.28C306.951 203.573 307.431 203.72 307.991 203.72C308.471 203.72 308.871 203.647 309.191 203.5C309.511 203.353 309.771 203.193 309.971 203.02C310.171 202.833 310.304 202.693 310.371 202.6C310.491 202.427 310.584 202.327 310.651 202.3C310.718 202.26 310.824 202.24 310.971 202.24H311.931C312.064 202.24 312.171 202.28 312.251 202.36C312.344 202.427 312.384 202.527 312.371 202.66C312.358 202.86 312.251 203.107 312.051 203.4C311.851 203.68 311.564 203.96 311.191 204.24C310.818 204.52 310.364 204.753 309.831 204.94C309.298 205.113 308.684 205.2 307.991 205.2ZM305.271 199.04H310.751V198.98C310.751 198.38 310.638 197.847 310.411 197.38C310.198 196.913 309.884 196.547 309.471 196.28C309.058 196 308.564 195.86 307.991 195.86C307.418 195.86 306.924 196 306.511 196.28C306.111 196.547 305.804 196.913 305.591 197.38C305.378 197.847 305.271 198.38 305.271 198.98V199.04ZM315.503 205C315.369 205 315.256 204.96 315.163 204.88C315.083 204.787 315.043 204.673 315.043 204.54V195.06C315.043 194.927 315.083 194.82 315.163 194.74C315.256 194.647 315.369 194.6 315.503 194.6H316.443C316.576 194.6 316.683 194.647 316.763 194.74C316.856 194.82 316.903 194.927 316.903 195.06V195.94C317.249 195.487 317.683 195.12 318.203 194.84C318.736 194.547 319.416 194.4 320.243 194.4C321.109 194.4 321.843 194.593 322.443 194.98C323.056 195.353 323.516 195.88 323.823 196.56C324.129 197.227 324.283 198.007 324.283 198.9V204.54C324.283 204.673 324.243 204.787 324.163 204.88C324.083 204.96 323.976 205 323.842 205H322.843C322.709 205 322.596 204.96 322.503 204.88C322.423 204.787 322.383 204.673 322.383 204.54V199C322.383 198.067 322.156 197.34 321.703 196.82C321.249 196.287 320.583 196.02 319.703 196.02C318.876 196.02 318.209 196.287 317.703 196.82C317.209 197.34 316.963 198.067 316.963 199V204.54C316.963 204.673 316.916 204.787 316.823 204.88C316.743 204.96 316.636 205 316.502 205H315.503ZM331.095 205C330.348 205 329.741 204.86 329.275 204.58C328.808 204.287 328.468 203.88 328.255 203.36C328.041 202.827 327.935 202.2 327.935 201.48V196.2H326.375C326.241 196.2 326.128 196.16 326.035 196.08C325.955 195.987 325.915 195.873 325.915 195.74V195.06C325.915 194.927 325.955 194.82 326.035 194.74C326.128 194.647 326.241 194.6 326.375 194.6H327.935V191.26C327.935 191.127 327.975 191.02 328.055 190.94C328.148 190.847 328.261 190.8 328.395 190.8H329.335C329.468 190.8 329.575 190.847 329.655 190.94C329.748 191.02 329.795 191.127 329.795 191.26V194.6H332.275C332.408 194.6 332.515 194.647 332.595 194.74C332.688 194.82 332.735 194.927 332.735 195.06V195.74C332.735 195.873 332.688 195.987 332.595 196.08C332.515 196.16 332.408 196.2 332.275 196.2H329.795V201.34C329.795 201.967 329.901 202.46 330.115 202.82C330.328 203.18 330.708 203.36 331.255 203.36H332.475C332.608 203.36 332.715 203.407 332.795 203.5C332.888 203.58 332.935 203.687 332.935 203.82V204.54C332.935 204.673 332.888 204.787 332.795 204.88C332.715 204.96 332.608 205 332.475 205H331.095Z" fill="#343434"/>
<path d="M607.248 53.4882C598.419 49.2891 587.622 48.0002 578.731 52.092C569.841 56.1838 563.863 66.4852 566.853 75.5099C568.208 79.6016 571.236 83.6068 570.12 87.7668C569.261 90.9689 566.163 93.1111 563.115 94.6436C560.067 96.1761 556.728 97.4732 554.539 100.025C552.351 102.577 551.937 106.933 554.727 108.862C555.647 109.498 556.722 109.932 557.614 110.602C558.409 111.391 558.719 111.937 559.267 112.95C560.15 114.584 561.286 115.571 561.032 117.366C560.777 119.16 559.24 121.053 557.683 122.335C554.571 125.221 554.589 128.043 554.589 129.614C554.589 131.185 556.456 134.067 558.223 135.297C559.99 136.528 564.731 138.026 565.784 138.322C567.973 138.959 576.257 140.537 583.068 140.698C592.594 140.924 607.247 137.422 607.247 137.422C607.247 137.422 638.336 140.698 643.344 140.698C648.352 140.698 654.401 139.552 658.683 138.322C661.962 136.96 664.987 134.799 666.676 133.137C667.726 132.103 669.524 129.398 669.917 127.087C670.492 123.708 668.517 119.132 666.676 117.366C663.907 114.707 659.769 115.117 657.171 112.181C654.572 109.244 655.527 106.443 655.937 102.606C656.265 99.5343 658.159 96.8615 659.509 94.0587C660.859 91.2559 661.622 87.7637 659.805 85.2192C657.245 81.6337 651.198 82.0277 648.295 78.6924C646.104 76.1753 646.481 72.5126 646.23 69.2382C645.625 61.362 640.354 53.9758 632.93 50.6011C629.156 48.9472 625.063 48.2606 620.988 48.5979C616.914 48.9353 612.975 50.287 609.498 52.5414L607.248 53.4882Z" fill="url(#paint0_linear_223_2)"/>
<path d="M598.807 173.041C596.543 171.234 595.494 169.581 595.85 168.383C596.206 167.186 597.943 166.522 600.746 166.514L599.276 115.92C599.482 114.813 601.055 114.226 603.651 114.286C606.246 114.346 609.651 115.049 613.119 116.241C616.587 117.432 619.834 119.015 622.148 120.641C624.462 122.268 625.653 123.805 625.46 124.916C625.458 124.931 625.455 124.946 625.451 124.961L625.064 174.939C625.568 175.315 626.024 175.689 626.426 176.056C627.489 177.033 628.174 177.953 628.441 178.761C628.708 179.57 628.552 180.252 627.982 180.769C627.412 181.286 626.439 181.627 625.119 181.774C623.798 181.92 622.156 181.869 620.286 181.623C620.093 181.597 619.897 181.569 619.698 181.54C617.547 181.217 615.177 180.658 612.758 179.903C610.34 179.147 607.932 178.214 605.709 177.17C602.932 175.869 600.542 174.439 598.807 173.041Z" fill="url(#paint1_linear_223_2)"/>
<path d="M612 133.222C628.569 133.222 642 120.014 642 103.722C642 87.4293 628.569 74.2217 612 74.2217C595.431 74.2217 582 87.4293 582 103.722C582 120.014 595.431 133.222 612 133.222Z" fill="url(#paint2_linear_223_2)"/>
<path d="M627.254 141.222L595.572 142.648C595.572 142.648 598.216 159.056 581.076 160.616C563.937 162.177 548.355 157.496 542.122 169.199C535.889 180.902 538.576 222.574 538.576 222.574C538.576 222.574 550.262 264.705 559.611 270.947C568.96 277.189 650.764 268.606 650.764 268.606L685 225.316L683.84 191.93C683.235 174.496 667.341 161.407 650.222 164.633C649.886 164.697 649.547 164.765 649.206 164.838C649.206 164.838 645.445 162.023 635.127 156.857C628.817 153.697 627.254 141.222 627.254 141.222Z" fill="url(#paint3_linear_223_2)"/>
<path d="M558 160.28C558 160.28 565.618 173.816 562.465 193.113C559.312 212.41 572.541 253.222 572.541 253.222L582 250.906C582 250.906 575.694 210.769 577.271 201.506C578.847 192.244 579.282 164.911 571.4 160.28C563.518 155.649 558 160.28 558 160.28Z" fill="url(#paint4_linear_223_2)"/>
<path d="M649.006 166.792L652.248 254.271L658.42 258.222C658.42 258.222 667.291 162.222 662.663 162.222H653.245C652.687 162.222 652.135 162.334 651.62 162.553C651.105 162.771 650.637 163.091 650.243 163.495C649.849 163.899 649.536 164.378 649.323 164.905C649.11 165.433 649 165.998 649 166.569C649 166.643 649.002 166.718 649.006 166.792Z" fill="url(#paint5_linear_223_2)"/>
<path d="M577.5 252.222C579.433 252.222 581 250.431 581 248.222C581 246.013 579.433 244.222 577.5 244.222C575.567 244.222 574 246.013 574 248.222C574 250.431 575.567 252.222 577.5 252.222Z" fill="#6C63FF"/>
<path d="M656 256.222C658.209 256.222 660 254.431 660 252.222C660 250.013 658.209 248.222 656 248.222C653.791 248.222 652 250.013 652 252.222C652 254.431 653.791 256.222 656 256.222Z" fill="#6C63FF"/>
<path d="M642.5 101.222C643.881 101.222 645 99.4308 645 97.2217C645 95.0125 643.881 93.2217 642.5 93.2217C641.119 93.2217 640 95.0125 640 97.2217C640 99.4308 641.119 101.222 642.5 101.222Z" fill="#FFB8B8"/>
<path d="M708 304.168V306.675C708.001 307.363 707.868 308.045 707.606 308.686C707.49 308.972 707.349 309.248 707.186 309.512C706.67 310.339 705.938 311.023 705.061 311.498C704.184 311.973 703.193 312.222 702.184 312.222H508.816C507.807 312.222 506.816 311.973 505.939 311.498C505.063 311.023 504.33 310.339 503.814 309.512C503.651 309.248 503.51 308.972 503.394 308.686C503.132 308.045 502.999 307.363 503 306.675V304.168C503 303.44 503.15 302.719 503.442 302.046C503.734 301.373 504.162 300.762 504.702 300.247C505.242 299.732 505.882 299.323 506.588 299.044C507.293 298.766 508.049 298.622 508.812 298.622H519.962V297.453C519.962 297.423 519.968 297.393 519.98 297.365C519.992 297.337 520.01 297.311 520.032 297.29C520.055 297.268 520.081 297.251 520.111 297.239C520.14 297.228 520.172 297.222 520.203 297.222H526.02C526.084 297.222 526.146 297.246 526.191 297.289C526.237 297.332 526.262 297.391 526.262 297.452V298.622H529.895V297.453C529.895 297.423 529.902 297.393 529.914 297.365C529.926 297.337 529.944 297.311 529.966 297.29C529.988 297.268 530.015 297.251 530.044 297.239C530.074 297.228 530.105 297.222 530.137 297.222H535.953C536.018 297.222 536.079 297.246 536.125 297.289C536.17 297.332 536.196 297.391 536.196 297.452V298.622H539.833V297.453C539.833 297.423 539.84 297.393 539.852 297.365C539.864 297.337 539.882 297.311 539.904 297.29C539.926 297.268 539.953 297.251 539.982 297.239C540.012 297.228 540.043 297.222 540.075 297.222H545.891C545.956 297.222 546.017 297.246 546.063 297.289C546.108 297.332 546.134 297.391 546.134 297.452V298.622H549.767V297.453C549.767 297.423 549.773 297.393 549.785 297.365C549.797 297.337 549.815 297.311 549.838 297.29C549.86 297.268 549.887 297.251 549.916 297.239C549.946 297.228 549.977 297.222 550.009 297.222H555.825C555.889 297.222 555.951 297.246 555.996 297.289C556.042 297.332 556.068 297.391 556.068 297.452V298.622H559.701V297.453C559.701 297.423 559.707 297.393 559.719 297.365C559.731 297.337 559.749 297.311 559.771 297.29C559.794 297.268 559.82 297.251 559.85 297.239C559.879 297.228 559.911 297.222 559.942 297.222H565.759C565.823 297.222 565.885 297.246 565.93 297.289C565.976 297.332 566.001 297.391 566.001 297.452V298.622H569.639V297.453C569.639 297.423 569.645 297.393 569.657 297.365C569.669 297.337 569.687 297.311 569.709 297.29C569.732 297.268 569.758 297.251 569.788 297.239C569.817 297.228 569.849 297.222 569.88 297.222H575.697C575.761 297.222 575.823 297.246 575.868 297.289C575.914 297.332 575.939 297.391 575.939 297.452V298.622H579.572V297.453C579.572 297.423 579.579 297.393 579.591 297.365C579.603 297.337 579.621 297.311 579.643 297.29C579.665 297.268 579.692 297.251 579.721 297.239C579.751 297.228 579.782 297.222 579.814 297.222H625.369C625.401 297.222 625.433 297.228 625.462 297.239C625.492 297.251 625.518 297.268 625.541 297.289C625.563 297.31 625.581 297.336 625.593 297.364C625.606 297.392 625.612 297.422 625.612 297.452V298.622H629.249V297.453C629.249 297.423 629.256 297.393 629.268 297.365C629.28 297.337 629.298 297.311 629.32 297.29C629.343 297.268 629.369 297.251 629.399 297.239C629.428 297.228 629.459 297.222 629.491 297.222H635.308C635.372 297.222 635.433 297.247 635.478 297.29C635.524 297.333 635.549 297.392 635.55 297.453V298.622H639.183V297.453C639.183 297.423 639.189 297.393 639.201 297.365C639.214 297.337 639.231 297.311 639.254 297.29C639.276 297.268 639.303 297.251 639.332 297.239C639.362 297.228 639.393 297.222 639.425 297.222H645.241C645.273 297.222 645.304 297.228 645.334 297.239C645.363 297.251 645.39 297.268 645.412 297.289C645.435 297.311 645.453 297.336 645.465 297.364C645.477 297.392 645.484 297.422 645.484 297.452V298.622H649.117V297.453C649.117 297.423 649.123 297.393 649.135 297.365C649.147 297.337 649.165 297.311 649.187 297.29C649.21 297.268 649.237 297.251 649.266 297.239C649.295 297.228 649.327 297.222 649.358 297.222H655.175C655.207 297.222 655.238 297.228 655.268 297.239C655.297 297.251 655.324 297.268 655.346 297.289C655.369 297.311 655.387 297.336 655.399 297.364C655.411 297.392 655.417 297.422 655.417 297.452V298.622H659.055V297.453C659.055 297.423 659.061 297.393 659.073 297.365C659.085 297.337 659.103 297.311 659.125 297.29C659.148 297.268 659.175 297.251 659.204 297.239C659.233 297.228 659.265 297.222 659.296 297.222H665.113C665.177 297.223 665.237 297.247 665.282 297.291C665.327 297.334 665.351 297.392 665.351 297.453V298.622H668.988V297.453C668.988 297.423 668.995 297.393 669.007 297.365C669.019 297.337 669.037 297.311 669.059 297.29C669.082 297.268 669.108 297.251 669.138 297.239C669.167 297.228 669.198 297.222 669.23 297.222H675.047C675.078 297.222 675.11 297.228 675.139 297.239C675.169 297.251 675.195 297.268 675.218 297.289C675.24 297.311 675.258 297.336 675.27 297.364C675.283 297.392 675.289 297.422 675.289 297.452V298.622H678.922V297.453C678.922 297.423 678.928 297.393 678.94 297.365C678.952 297.337 678.97 297.311 678.993 297.29C679.015 297.268 679.042 297.251 679.071 297.239C679.101 297.228 679.132 297.222 679.164 297.222H684.98C685.012 297.222 685.043 297.228 685.073 297.239C685.102 297.251 685.129 297.268 685.151 297.289C685.174 297.311 685.192 297.336 685.204 297.364C685.216 297.392 685.223 297.422 685.223 297.452V298.622H702.184C703.726 298.621 705.205 299.205 706.296 300.245C707.387 301.284 708 302.695 708 304.165L708 304.168Z" fill="url(#paint6_linear_223_2)"/>
<path d="M692.148 193.222H515.852C515.215 193.222 514.584 193.348 513.995 193.595C513.407 193.841 512.872 194.202 512.421 194.657C511.971 195.112 511.613 195.652 511.369 196.247C511.126 196.841 511 197.479 511 198.122V297.321C511 298.621 511.511 299.867 512.421 300.786C513.331 301.705 514.565 302.222 515.852 302.222H692.148C693.435 302.222 694.669 301.705 695.579 300.786C696.489 299.867 697 298.621 697 297.321V198.122C697 196.822 696.489 195.576 695.579 194.657C694.669 193.738 693.435 193.222 692.148 193.222Z" fill="url(#paint7_linear_223_2)"/>
<path d="M578.759 96.9845C588.584 96.2 596.741 86.4408 595.719 76.6929C595.604 80.7108 596.978 84.6306 599.58 87.7066C602.182 90.7827 605.83 92.8004 609.831 93.3759C614.338 93.8696 619.279 92.5138 623.201 94.7745C627.546 97.2784 628.936 103.359 633.462 105.522C637.836 107.611 643.39 104.761 645.551 100.442C647.711 96.1219 647.181 90.9322 645.749 86.3226C643.707 79.7489 639.989 73.8125 634.956 69.0909C629.923 64.3693 623.747 61.0233 617.029 59.3781C610.31 57.733 603.278 57.8448 596.615 59.7027C589.953 61.5606 583.888 65.1013 579.009 69.9805C574.878 74.1122 571.598 79.3781 571.066 85.1803C570.534 90.9825 573.241 97.2782 578.481 99.8848L578.759 96.9845Z" fill="url(#paint8_linear_223_2)"/>
<path d="M610.755 241.126C610.575 242.753 610.192 243.841 609.537 244.491C608.947 245.077 607.845 245.583 605.511 245.324C602.903 245.035 601.024 242.687 601.313 240.079C601.606 237.432 602.361 236.533 602.984 236.167C603.697 235.747 604.739 235.692 606.376 235.862C607.319 236.212 608.079 236.499 608.716 236.801C609.387 237.118 609.824 237.407 610.12 237.707C610.607 238.202 610.99 239.005 610.755 241.126Z" stroke="#F2F2F2" stroke-width="3"/>
<path d="M599.854 253.685L599.87 253.61L599.879 253.534C600.046 252.02 600.543 250.753 601.265 249.997C601.897 249.336 602.825 248.926 604.373 249.313L604.559 249.359L604.751 249.358C606.683 249.34 607.801 250.035 608.444 250.903C609.129 251.828 609.422 253.154 609.264 254.574C609.047 256.535 608.351 257.681 607.526 258.275C606.733 258.846 605.548 259.101 603.884 258.715C603.445 258.505 602.963 258.297 602.533 258.111C602.266 257.996 602.02 257.889 601.816 257.796C601.156 257.495 600.691 257.234 600.357 256.941C600.057 256.677 599.859 256.382 599.754 255.957C599.641 255.497 599.615 254.79 599.854 253.685Z" stroke="#F2F2F2" stroke-width="3"/>
<path d="M622.485 248.767C622.271 250.696 621.758 251.944 621.061 252.661C620.43 253.31 619.441 253.733 617.701 253.54C616.589 253.416 615.758 252.883 615.157 251.969C614.555 251.054 614.151 249.695 614.093 247.905C614.819 245.833 615.344 245.049 615.917 244.625C616.542 244.161 617.449 243.939 619.585 243.647C620.52 243.659 621.104 243.845 621.472 244.059C621.835 244.271 622.082 244.566 622.259 244.966C622.657 245.865 622.659 247.194 622.485 248.767Z" stroke="#F2F2F2" stroke-width="3"/>
<defs>
<linearGradient id="paint0_linear_223_2" x1="579" y1="60" x2="660.5" y2="137" gradientUnits="userSpaceOnUse">
<stop stop-color="#2F2E41"/>
<stop offset="0.174475" stop-color="#403F52"/>
<stop offset="0.344316" stop-color="#2F2E41"/>
<stop offset="0.609375" stop-color="#403F52"/>
<stop offset="0.84213" stop-color="#2F2E41"/>
<stop offset="0.95955" stop-color="#403F52"/>
</linearGradient>
<linearGradient id="paint1_linear_223_2" x1="594" y1="136" x2="627.5" y2="138.5" gradientUnits="userSpaceOnUse">
<stop stop-color="#F7A7A7"/>
<stop offset="1" stop-color="#F7CBCB"/>
</linearGradient>
<linearGradient id="paint2_linear_223_2" x1="573.5" y1="100" x2="644.5" y2="120.5" gradientUnits="userSpaceOnUse">
<stop stop-color="#FCA8A8"/>
<stop offset="1" stop-color="#FFD5D5"/>
</linearGradient>
<linearGradient id="paint3_linear_223_2" x1="572.5" y1="148.5" x2="622" y2="190.5" gradientUnits="userSpaceOnUse">
<stop stop-color="#878787"/>
<stop offset="0.894301" stop-color="#BCBCBC"/>
</linearGradient>
<linearGradient id="paint4_linear_223_2" x1="546.5" y1="158" x2="582" y2="180.5" gradientUnits="userSpaceOnUse">
<stop stop-color="#1E1D32"/>
<stop offset="1" stop-color="#59586B"/>
</linearGradient>
<linearGradient id="paint5_linear_223_2" x1="640.5" y1="168.5" x2="674" y2="187" gradientUnits="userSpaceOnUse">
<stop stop-color="#2A293D"/>
<stop offset="1" stop-color="#767687"/>
</linearGradient>
<linearGradient id="paint6_linear_223_2" x1="529" y1="280.5" x2="642.5" y2="327" gradientUnits="userSpaceOnUse">
<stop stop-color="#323030"/>
<stop offset="1" stop-color="#514F4F"/>
</linearGradient>
<linearGradient id="paint7_linear_223_2" x1="527" y1="204.5" x2="676.5" y2="294.5" gradientUnits="userSpaceOnUse">
<stop stop-color="#323030"/>
<stop offset="0.819221" stop-color="#514F4F"/>
</linearGradient>
<linearGradient id="paint8_linear_223_2" x1="588" y1="66.5" x2="614" y2="90.5" gradientUnits="userSpaceOnUse">
<stop offset="0.0717224" stop-color="#2F2E41"/>
<stop offset="0.480562" stop-color="#403F52"/>
<stop offset="1" stop-color="#2F2E41"/>
</linearGradient>
</defs>
</svg>
